<?xml version="1.0" standalone="no"?>
<!DOCTYPE svg PUBLIC "-//W3C//DTD SVG 20010904//EN"
 "http://www.w3.org/TR/2001/REC-SVG-20010904/DTD/svg10.dtd">
<svg version="1.0" xmlns="http://www.w3.org/2000/svg"
 width="550.000000pt" height="646.000000pt" viewBox="0 0 550.000000 646.000000"
 preserveAspectRatio="xMidYMid meet">

<g transform="translate(0.000000,646.000000) scale(0.100000,-0.100000)"
fill="#000000" stroke="none">
<path d="M1497 6230 c-178 -45 -296 -231 -297 -468 0 -158 44 -298 133 -426
l44 -62 -91 -60 c-327 -214 -621 -509 -828 -829 -113 -174 -162 -273 -243
-490 -4 -11 12 3 35 30 60 70 346 352 371 366 25 13 25 13 -32 -73 -58 -86
-173 -310 -224 -438 -86 -213 -154 -484 -174 -691 -15 -151 -20 -231 -15 -226
3 2 22 40 43 83 39 80 117 196 107 159 -18 -67 -30 -239 -30 -435 0 -187 4
-246 22 -351 62 -351 157 -601 330 -871 31 -48 57 -86 58 -85 2 1 -15 58 -36
125 -64 200 -91 377 -89 582 1 105 16 193 18 110 2 -62 42 -234 85 -362 148
-439 411 -859 704 -1121 84 -76 321 -242 330 -232 3 3 -22 33 -55 67 -62 66
-173 211 -238 313 l-37 59 72 -66 c77 -72 257 -210 361 -278 83 -54 360 -190
469 -230 574 -212 1152 -253 1727 -124 184 41 583 175 583 196 0 5 -28 8 -63
8 -99 0 -306 27 -460 61 -305 66 -633 201 -867 356 -657 437 -1119 1095 -1294
1843 -15 64 -15 62 -11 -135 5 -277 42 -492 131 -767 156 -478 412 -890 783
-1257 75 -74 127 -129 116 -124 -11 6 -76 38 -145 71 -230 111 -430 261 -646
485 -155 161 -243 269 -356 442 -201 306 -358 702 -418 1055 -23 137 -40 373
-33 450 8 88 -12 49 -36 -67 -11 -56 -25 -160 -32 -232 -28 -319 47 -727 200
-1089 55 -131 179 -371 223 -435 25 -35 10 -35 -22 1 -14 15 -45 45 -70 66
-72 62 -219 229 -213 241 4 5 3 7 -2 3 -10 -9 -137 159 -252 334 -260 396
-417 808 -464 1217 -17 152 -7 503 20 656 62 364 182 666 383 966 268 401 588
663 954 785 60 19 110 36 111 37 1 1 -49 3 -110 3 -113 2 -257 32 -257 54 0 6
5 10 11 10 5 0 8 4 4 9 -3 5 -1 12 5 16 16 10 12 25 -5 19 -8 -4 -15 -2 -15 4
0 5 7 12 15 16 21 8 19 29 -4 50 -19 17 -19 17 -16 -1 1 -10 8 -17 15 -15 6 1
9 -2 6 -7 -4 -5 -15 -9 -26 -8 -17 1 -19 6 -14 33 6 34 -13 54 -47 49 -9 -2
-16 3 -16 11 0 10 4 11 14 3 22 -19 14 7 -9 27 -12 10 -18 13 -13 5 6 -10 4
-12 -4 -7 -7 5 -10 14 -7 22 3 8 1 14 -5 14 -6 0 -7 5 -4 10 3 6 -2 10 -12 11
-10 0 -13 3 -6 6 9 3 10 10 3 24 -9 17 -7 19 17 19 15 0 53 -7 83 -15 30 -8
56 -13 58 -10 2 2 -23 30 -56 63 -69 69 -157 116 -251 135 l-64 13 33 38 c59
67 100 78 198 52 124 -33 277 -162 377 -316 l60 -92 65 6 c104 11 624 8 755
-4 637 -56 1272 -217 1767 -448 137 -65 216 -118 303 -206 119 -121 162 -239
151 -416 -18 -287 -72 -544 -149 -700 -43 -89 -63 -117 -132 -185 -44 -44 -95
-88 -113 -98 l-32 -18 30 44 c59 88 116 241 134 362 6 38 5 37 -31 -30 -147
-272 -363 -436 -655 -499 -22 -5 -26 -3 -22 9 3 8 11 12 17 8 6 -3 7 -1 3 6
-10 15 13 43 27 34 5 -3 7 -1 3 5 -3 6 -2 13 3 16 5 3 11 -1 15 -9 3 -8 11
-15 18 -15 11 0 11 2 0 8 -18 12 -9 52 16 73 37 29 24 32 -20 4 -72 -45 -232
-117 -258 -117 -13 0 -30 -8 -37 -17 -16 -20 -16 -9 -1 24 11 24 12 25 32 8
20 -17 20 -17 7 0 -11 14 -11 20 0 35 13 15 12 16 -4 3 -15 -12 -17 -12 -11 2
3 8 12 18 20 21 9 3 12 10 9 16 -3 5 -1 10 5 10 6 0 8 5 4 12 -4 7 -3 8 4 4 6
-4 10 -12 8 -19 -1 -7 -1 -8 2 -4 2 4 10 0 18 -10 7 -10 14 -13 14 -6 0 6 -5
15 -10 18 -6 4 -7 11 -4 17 4 7 2 8 -5 4 -6 -4 -14 0 -17 8 -3 9 -11 13 -16
10 -6 -4 -14 -1 -18 6 -6 9 -12 10 -26 1 -15 -8 -16 -11 -4 -12 8 -1 18 -1 23
0 22 3 -1 -19 -61 -59 -37 -24 -80 -59 -95 -77 -29 -34 -49 -43 -44 -21 1 7
13 18 27 25 19 9 21 12 7 12 -10 1 -15 6 -12 12 4 6 13 8 21 5 8 -3 13 0 11 7
-1 7 6 11 16 9 24 -4 22 1 -14 27 -18 13 -28 17 -23 10 14 -23 13 -39 -2 -39
-8 0 -14 -4 -14 -10 0 -5 -8 -10 -17 -10 -15 0 -16 -2 -3 -10 12 -8 9 -10 -12
-10 -16 0 -28 -4 -28 -10 0 -5 -10 -18 -22 -30 -12 -11 -17 -20 -10 -20 6 0
14 5 17 10 4 6 11 7 17 4 6 -4 5 -9 -3 -15 -7 -4 -10 -11 -6 -16 9 -8 28 17
21 28 -2 4 0 10 5 13 5 4 13 1 16 -5 9 -13 -60 -86 -80 -86 -8 0 -16 4 -16 9
-3 19 -5 24 -12 36 -5 7 -4 12 2 12 6 0 11 5 11 10 0 21 -16 8 -46 -38 -18
-26 -37 -57 -43 -69 -10 -20 -9 -23 9 -23 17 0 20 4 15 20 -8 26 40 88 49 64
8 -22 7 -31 -2 -17 -5 8 -13 2 -24 -17 -16 -27 -15 -29 3 -27 12 1 17 7 14 15
-2 7 0 10 5 7 6 -3 10 -2 10 3 0 5 7 9 15 9 8 0 15 -3 15 -6 -1 -13 -89 -105
-90 -93 0 6 5 12 10 12 6 0 10 7 10 16 0 14 -3 14 -15 4 -8 -7 -15 -9 -15 -4
0 4 -7 -1 -15 -12 -15 -19 -15 -19 -9 1 6 16 5 18 -7 8 -16 -16 -21 -90 -6
-100 6 -4 8 0 4 10 -4 10 -2 17 4 17 14 0 4 -41 -20 -81 -13 -22 -21 -27 -27
-18 -5 8 1 18 14 27 26 17 28 35 5 53 -15 12 -16 12 -10 -3 3 -9 1 -19 -6 -22
-8 -3 -8 -5 1 -5 10 -1 9 -5 -3 -17 -10 -10 -13 -24 -9 -36 4 -14 2 -18 -5
-14 -6 4 -11 2 -11 -4 0 -6 -4 -8 -10 -5 -6 3 -7 -1 -4 -9 3 -9 11 -13 16 -10
6 4 8 1 6 -7 -3 -8 -11 -13 -18 -11 -8 2 -11 -4 -8 -15 3 -10 -1 -24 -8 -31
-19 -17 -38 -88 -38 -144 -1 -25 -4 -44 -7 -42 -10 6 -21 -309 -14 -371 4 -30
5 -55 2 -55 -9 0 -73 205 -93 295 -24 112 -24 341 0 455 35 162 88 282 180
408 26 34 46 65 46 68 0 11 -90 -58 -163 -126 -42 -40 -77 -67 -77 -62 0 6 10
18 22 26 12 9 18 16 12 16 -17 0 -47 -37 -41 -52 2 -7 -13 -34 -34 -59 -21
-25 -36 -49 -32 -52 3 -4 -2 -9 -11 -13 -9 -3 -14 -10 -11 -14 3 -4 -4 -18
-14 -31 -10 -13 -21 -34 -25 -46 -4 -13 -11 -23 -16 -23 -11 0 -33 60 -31 85
1 17 0 18 -9 4 -15 -25 -40 -129 -40 -169 0 -24 -3 -31 -9 -21 -14 22 -29
-159 -25 -314 10 -446 167 -789 530 -1161 240 -245 531 -431 860 -550 111 -40
111 -38 -1 36 -392 260 -660 626 -755 1030 -11 47 -23 94 -26 105 -3 11 14
-15 38 -58 68 -123 154 -233 275 -355 111 -111 155 -142 113 -80 -85 128 -189
408 -214 580 -63 424 68 764 346 897 46 21 115 46 153 55 39 8 115 25 170 36
261 57 440 175 581 387 108 161 166 340 205 639 49 373 26 537 -101 724 -101
147 -281 284 -501 380 -465 203 -1052 361 -1536 412 l-115 13 -28 55 c-38 75
-101 158 -153 198 -49 40 -149 92 -174 92 -26 0 -115 -81 -151 -137 -17 -26
-38 -76 -48 -109 l-17 -62 -150 -7 c-132 -6 -151 -5 -159 9 -5 9 -35 49 -68
90 -98 124 -232 223 -360 266 -73 25 -204 35 -263 20z m1291 -324 c40 -43 67
-85 57 -87 -36 -8 -46 0 -78 64 -18 37 -30 67 -27 67 4 0 26 -20 48 -44z
m-1048 -326 c0 -5 -5 -10 -11 -10 -5 0 -7 5 -4 10 3 6 8 10 11 10 2 0 4 -4 4
-10z m2036 -2152 c4 -7 4 -10 -1 -6 -4 4 -14 3 -22 -3 -13 -11 -19 2 -6 14 10
11 21 8 29 -5z m-644 -290 c-8 -8 -12 -9 -12 -1 0 6 -3 20 -6 30 -7 17 -6 17
12 1 14 -14 16 -20 6 -30z m-9 -31 c-7 -11 -23 12 -23 32 0 11 4 9 14 -4 8
-11 12 -24 9 -28z m7 -38 c-14 -31 -20 -37 -20 -22 0 12 -4 25 -10 28 -5 3
-10 14 -10 23 1 12 5 10 14 -8 l14 -25 13 28 c7 15 14 25 16 24 2 -2 -6 -24
-17 -48z m-28 -86 c-3 -16 -7 -22 -10 -15 -4 13 4 42 11 42 2 0 2 -12 -1 -27z"/>
<path d="M1829 5484 c-13 -7 -20 -13 -16 -14 5 0 17 5 28 10 13 7 19 7 19 0 0
-5 5 -10 10 -10 6 0 10 4 10 9 0 16 -26 19 -51 5z"/>
<path d="M1831 5461 c-8 -5 -19 -7 -25 -5 -7 3 -12 -5 -13 -16 -1 -11 3 -20 8
-20 6 0 7 5 3 11 -4 8 1 9 17 4 19 -5 21 -4 9 4 -13 9 -13 11 2 11 9 0 20 5
23 10 8 12 -5 13 -24 1z"/>
<path d="M1865 5451 c-3 -5 0 -13 6 -17 7 -4 9 -3 5 4 -3 5 0 13 6 15 9 4 10
6 1 6 -6 1 -14 -3 -18 -8z"/>
<path d="M1835 5420 c-16 -7 -17 -9 -3 -9 9 -1 20 4 23 9 7 11 7 11 -20 0z"/>
<path d="M2620 5255 c-72 -16 -192 -56 -186 -62 2 -3 34 -11 71 -18 86 -18
109 -34 139 -94 60 -118 159 -153 322 -115 43 10 101 14 159 12 l91 -3 -66 65
c-36 36 -88 91 -116 122 -77 84 -117 101 -244 105 -65 1 -130 -3 -170 -12z"/>
<path d="M4610 4661 c-52 -27 -80 -74 -80 -133 0 -95 50 -152 207 -240 l81
-45 5 27 c3 15 9 83 13 151 6 115 5 128 -15 167 -23 46 -63 78 -82 66 -7 -4
-9 -3 -6 3 17 28 -74 31 -123 4z m120 -111 c18 -12 2 -12 -25 0 -13 6 -15 9
-5 9 8 0 22 -4 30 -9z"/>
<path d="M3590 3630 c-8 -5 -12 -12 -9 -15 4 -3 12 1 19 10 14 17 11 19 -10 5z"/>
<path d="M4035 3600 c-3 -6 1 -7 9 -4 18 7 21 14 7 14 -6 0 -13 -4 -16 -10z"/>
<path d="M3915 3590 c-3 -6 1 -7 9 -4 18 7 21 14 7 14 -6 0 -13 -4 -16 -10z"/>
<path d="M3910 3535 c-12 -13 -27 -22 -33 -18 -6 4 -7 1 -2 -6 5 -9 16 -5 39
16 17 15 33 29 35 31 2 1 0 2 -6 2 -5 0 -20 -11 -33 -25z"/>
<path d="M4019 3512 c9 -7 10 -11 2 -15 -7 -4 -8 -5 -1 -3 16 2 14 20 -2 24
-10 3 -10 2 1 -6z"/>
<path d="M3320 3486 c0 -2 7 -9 15 -16 13 -11 14 -10 9 4 -5 14 -24 23 -24 12z"/>
<path d="M3362 3476 c7 -8 15 -12 17 -11 5 6 -10 25 -20 25 -5 0 -4 -6 3 -14z"/>
<path d="M3719 3453 c-13 -16 -12 -17 4 -4 9 7 17 15 17 17 0 8 -8 3 -21 -13z"/>
<path d="M3281 3413 c-7 -8 -11 -16 -8 -19 2 -2 10 2 17 11 17 20 9 27 -9 8z"/>
<path d="M3232 3386 c7 -8 15 -12 17 -11 5 6 -10 25 -20 25 -5 0 -4 -6 3 -14z"/>
<path d="M3203 3368 c-15 -20 -25 -38 -20 -38 3 0 12 11 21 25 17 26 16 35 -1
13z"/>
<path d="M3680 3371 c0 -5 7 -14 15 -21 13 -11 14 -10 8 6 -6 17 -5 17 10 5 9
-7 17 -9 17 -3 0 10 -23 22 -41 22 -5 0 -9 -4 -9 -9z"/>
<path d="M3275 3361 c-3 -6 -11 -8 -17 -5 -7 5 -8 2 -4 -5 11 -17 -26 -44 -36
-28 -6 9 -10 8 -17 -2 -5 -7 -14 -11 -19 -7 -16 10 -33 -27 -21 -45 8 -12 10
-12 8 1 -3 32 2 45 10 25 5 -11 5 -28 0 -37 -6 -10 -5 -19 1 -23 15 -9 12 -25
-4 -19 -8 3 -17 17 -20 30 -4 14 -11 22 -17 18 -6 -4 -7 -9 -2 -13 14 -10 33
-61 23 -61 -6 0 -10 5 -10 10 0 6 -4 10 -9 10 -5 0 -4 -11 2 -25 13 -26 27
-33 27 -13 0 6 7 20 16 29 9 10 17 29 18 41 1 13 7 22 15 20 7 -1 10 2 6 7 -3
6 11 28 31 51 20 22 34 43 31 46 -3 3 -8 0 -12 -5z m-57 -63 c-2 -6 -10 -14
-16 -16 -7 -2 -10 2 -6 12 7 18 28 22 22 4z"/>
<path d="M3635 3270 c-3 -5 -1 -10 4 -10 6 0 11 5 11 10 0 6 -2 10 -4 10 -3 0
-8 -4 -11 -10z"/>
</g>
</svg>
