<?xml version="1.0" standalone="no"?>
<!DOCTYPE svg PUBLIC "-//W3C//DTD SVG 20010904//EN"
 "http://www.w3.org/TR/2001/REC-SVG-20010904/DTD/svg10.dtd">
<svg version="1.0" xmlns="http://www.w3.org/2000/svg"
 width="217.000000pt" height="143.000000pt" viewBox="0 0 217.000000 143.000000"
 preserveAspectRatio="xMidYMid meet">

<g transform="translate(0.000000,143.000000) scale(0.100000,-0.100000)"
fill="#000000" stroke="none">
<path d="M1820 1191 c-180 -79 -376 -172 -392 -185 -22 -19 -23 -59 -2 -80 23
-24 61 -30 110 -19 24 6 44 7 44 3 0 -11 -71 -74 -117 -104 -21 -14 -67 -33
-102 -42 -81 -20 -157 -13 -306 29 -94 26 -126 31 -220 30 -180 0 -301 -49
-417 -167 -64 -65 -113 -143 -152 -239 -54 -136 -58 -202 -11 -233 40 -26 58
-10 110 94 39 77 63 112 124 173 150 150 289 180 531 114 115 -31 280 -43 360
-26 88 19 188 74 293 161 54 44 102 78 107 75 6 -3 10 -17 10 -31 0 -76 55
-123 109 -93 35 20 40 59 43 322 3 206 2 219 -16 233 -26 19 -30 18 -106 -15z"/>
</g>
</svg>
